<!DOCTYPE svg PUBLIC "-//W3C//DTD SVG 1.1//EN" "http://www.w3.org/Graphics/SVG/1.1/DTD/svg11.dtd">
<!-- Uploaded to: SVG Repo, www.svgrepo.com, Transformed by: SVG Repo Mixer Tools -->
<svg width="800px" height="800px" viewBox="-4.8 -4.8 57.60 57.60" id="Layer_2" data-name="Layer 2" xmlns="http://www.w3.org/2000/svg" fill="#0000ff" stroke="#0000ff" stroke-width="2.4" transform="rotate(0)">
<g id="SVGRepo_bgCarrier" stroke-width="0" transform="translate(0,0), scale(1)">
<rect x="-4.8" y="-4.8" width="57.60" height="57.60" rx="0" fill="#ffffff" strokewidth="0"/>
</g>
<g id="SVGRepo_tracerCarrier" stroke-linecap="round" stroke-linejoin="round" stroke="#e50606" stroke-width="2.112">
<defs>
<style>.cls-1{fill:none;stroke:#0000ff;stroke-linecap:round;stroke-linejoin:round;}</style>
</defs>
<path class="cls-1" d="M40.5,5.5H7.5a2,2,0,0,0-2,2v33a2,2,0,0,0,2,2h33a2,2,0,0,0,2-2V7.5A2,2,0,0,0,40.5,5.5Z"/>
<line class="cls-1" x1="15.19" y1="37.42" x2="24.19" y2="10.5"/>
<line class="cls-1" x1="32.81" y1="37.5" x2="24.19" y2="10.5"/>
<line class="cls-1" x1="29.93" y1="28.47" x2="18.18" y2="28.47"/>
</g>
<g id="SVGRepo_iconCarrier">
<defs>
<style>.cls-1{fill:none;stroke:#0000ff;stroke-linecap:round;stroke-linejoin:round;}</style>
</defs>
<path class="cls-1" d="M40.5,5.5H7.5a2,2,0,0,0-2,2v33a2,2,0,0,0,2,2h33a2,2,0,0,0,2-2V7.5A2,2,0,0,0,40.5,5.5Z"/>
<line class="cls-1" x1="15.19" y1="37.42" x2="24.19" y2="10.5"/>
<line class="cls-1" x1="32.81" y1="37.5" x2="24.19" y2="10.5"/>
<line class="cls-1" x1="29.93" y1="28.47" x2="18.18" y2="28.47"/>
</g>
</svg>